<svg xmlns="http://www.w3.org/2000/svg" width="211" height="58"><path fill="#3B4262" d="M13.971 25.702l6.012-8.415c-2.499-.415-7.088-.507-10.846 3.235C3.212 26.421.812 39.163.312 42.248L15.37 57.24c2.711-.232 14.713-1.827 26.279-13.34.122-.249 2.94-2.321.636-4.614-1.1-1.095-2.919-1.074-4.042.044-.572.57-1.461.577-2.021.02-.56-.557-.552-1.443.02-2.012l4.087-4.069c2.076-2.067.119-5.555-2.78-4.717l-3.345 2.851c-.611.53-1.52.439-2.022-.14-.519-.597-.4081.503.1832.01311.68710.2089.988.97917.515.9952.8092.329.7256.4473.4934.09L28.18225.45c.529.4481.34.4571.86.02-.601-.517-.615-1.262-.222-1.85L38.787 3.944c1.854-2.5-1.795-5.277-3.749-2.757L16.28 27.307c-.452.65-1.364.8-1.985.345a1.377 1.377 0 01-.323-1.95z"/>
</svg>
